<?xml version="1.0" encoding="UTF-8"?>
<svg version="1.1" xmlns="http://www.w3.org/2000/svg" width="1536" height="1024">
<path d="M0 0 C506.88 0 1013.76 0 1536 0 C1536 337.92 1536 675.84 1536 1024 C1029.12 1024 522.24 1024 0 1024 C0 686.08 0 348.16 0 0 Z " fill="#FEFEFE" transform="translate(0,0)"/>
<path d="M0 0 C2.85967257 -0.30479269 5.45621029 -0.41795173 8.3125 -0.375 C9.07240234 -0.38660156 9.83230469 -0.39820313 10.61523438 -0.41015625 C15.22378876 -0.38613251 18.40644688 -0.14210172 22 3 C26.74275254 9.02941463 30.16456264 15.87518573 33.625 22.6875 C37.81229686 30.81765257 42.0626936 38.90651732 46.4375 46.9375 C46.92105957 47.82977295 47.40461914 48.7220459 47.90283203 49.64135742 C50.76502794 54.88109468 53.78690756 59.96751583 57 65 C57.37584229 64.32348389 57.75168457 63.64696777 58.13891602 62.94995117 C58.67186279 61.99064697 59.20480957 61.03134277 59.75390625 60.04296875 C60.35420654 58.96233154 60.95450684 57.88169434 61.57299805 56.76831055 C62.91126686 54.35937676 64.25002511 51.95071582 65.58911133 49.54223633 C68.78645221 43.79057863 71.98149859 38.03772225 75.16230774 32.27690125 C76.51185544 29.83302762 77.86327077 27.3901891 79.21481323 24.94741821 C80.16984374 23.21944613 81.12217911 21.48998536 82.07446289 19.76049805 C83.69717022 16.82894768 85.34003856 13.91057958 87 11 C87.36303223 10.34596191 87.72606445 9.69192383 88.10009766 9.01806641 C90.40626681 5.15549957 92.78887156 3.51168713 97 2 C100.54296875 1.6015625 100.54296875 1.6015625 104.1875 1.625 C105.39792969 1.61726563 106.60835938 1.60953125 107.85546875 1.6015625 C111 2 111 2 112.67272377 3.24261475 C114.36415049 5.48215488 114.37702818 6.72641501 114.38095093 9.51660156 C114.3894104 10.44194702 114.39786987 11.36729248 114.40658569 12.32067871 C114.400513 13.33376099 114.39444031 14.34684326 114.38818359 15.390625 C114.39344055 16.45913696 114.39869751 17.52764893 114.40411377 18.62854004 C114.41734403 22.16917432 114.4085647 25.70936095 114.3984375 29.25 C114.40045736 31.70475349 114.40336805 34.15950639 114.40713501 36.61425781 C114.41156248 41.76242783 114.40511355 46.91044184 114.39111328 52.05859375 C114.37402137 58.66665056 114.38386027 65.27434186 114.40183067 71.88238525 C114.41265698 76.95233935 114.40922743 82.0222064 114.4014473 87.09216309 C114.3994421 89.52909386 114.40191569 91.96603247 114.40888596 94.4029541 C114.41648128 97.80530822 114.40492257 101.20706548 114.38818359 104.609375 C114.39425629 105.62245728 114.40032898 106.63553955 114.40658569 107.67932129 C114.39812622 108.60466675 114.38966675 109.53001221 114.38095093 110.48339844 C114.37981985 111.28791443 114.37868877 112.09243042 114.37752342 112.92132568 C113.90123263 115.54382109 113.12564246 116.42712429 111 118 C107.75 118.3984375 107.75 118.3984375 104 118.375 C102.7625 118.38273438 101.525 118.39046875 100.25 118.3984375 C97 118 97 118 95.32389832 116.92668152 C93.34146492 114.04162778 93.56060027 111.15567388 93.56762695 107.7746582 C93.55233948 106.6767244 93.55233948 106.6767244 93.53674316 105.55661011 C93.50655568 103.13792321 93.49733874 100.71963196 93.48828125 98.30078125 C93.47143877 96.62353696 93.45328912 94.94630534 93.43388367 93.26908875 C93.38633047 88.85505121 93.35655566 84.44106498 93.33044434 80.02685547 C93.30066555 75.52235785 93.25412606 71.0180371 93.20898438 66.51367188 C93.12289083 57.67587367 93.05557255 48.83803912 93 40 C92.58324509 40.75048615 92.16649017 41.50097229 91.73710632 42.27420044 C90.15356094 45.12566323 88.56988578 47.97705386 86.98612976 50.82839966 C86.30767401 52.04992951 85.62926632 53.27148606 84.95091248 54.49307251 C80.24916977 62.95991583 75.5371273 71.42089825 70.8125 79.875 C70.26141068 80.86271393 69.71032135 81.85042786 69.14253235 82.86807251 C64.10638801 91.85494326 64.10638801 91.85494326 61 95 C55.67164179 95.84577114 55.67164179 95.84577114 53 95 C48.61162587 91.35917225 46.18045387 87.19767229 43.5625 82.25 C42.69610285 80.65321675 41.82886452 79.05688971 40.9609375 77.4609375 C40.49268555 76.59436523 40.02443359 75.72779297 39.54199219 74.83496094 C36.63491954 69.49029223 33.65817498 64.18449086 30.6875 58.875 C30.10105713 57.82086914 29.51461426 56.76673828 28.91040039 55.68066406 C28.34571045 54.6697168 27.78102051 53.65876953 27.19921875 52.6171875 C26.70252686 51.72628418 26.20583496 50.83538086 25.6940918 49.91748047 C23.54884888 46.22305003 21.28228818 42.61090506 19 39 C18.99413376 39.94547195 18.98826752 40.89094391 18.98222351 41.86506653 C18.9250544 50.76756696 18.85232355 59.66982176 18.76428509 68.57207203 C18.71952361 73.14902302 18.6802804 77.7258838 18.65356445 82.30297852 C18.62758887 86.71868419 18.58722773 91.13404381 18.53681374 95.54953575 C18.520106 97.23562001 18.5086161 98.92176417 18.50238609 100.60791969 C18.49278715 102.96660418 18.46478016 105.3243955 18.43237305 107.68286133 C18.43380814 108.38273163 18.43524323 109.08260193 18.4367218 109.80368042 C18.38159541 112.63339121 18.29967327 114.56258402 16.67610168 116.93241882 C13.89937556 118.70103499 11.23409836 118.39521311 8 118.375 C6.7625 118.38273438 5.525 118.39046875 4.25 118.3984375 C1 118 1 118 -0.67973614 116.76213074 C-2.37460175 114.50002626 -2.37479741 113.21877133 -2.3742218 110.4074707 C-2.38123611 109.46529694 -2.38825043 108.52312317 -2.39547729 107.55239868 C-2.38783356 106.52061493 -2.38018982 105.48883118 -2.37231445 104.42578125 C-2.37596512 103.33776215 -2.37961578 102.24974304 -2.38337708 101.12875366 C-2.39149981 97.52317825 -2.37785774 93.91804981 -2.36328125 90.3125 C-2.36276285 87.8129069 -2.36327976 85.3133134 -2.36479187 82.8137207 C-2.36470207 77.57140082 -2.35459379 72.32919716 -2.33618164 67.08691406 C-2.31501387 61.02533253 -2.31150408 54.96394045 -2.3177436 48.90232944 C-2.32343763 43.07226083 -2.31768683 37.24226005 -2.30657005 31.41220093 C-2.30271326 28.93061594 -2.30157181 26.44902523 -2.3031559 23.96743774 C-2.30352561 20.50291997 -2.29093245 17.03869297 -2.2746582 13.57421875 C-2.27837433 12.02654312 -2.27837433 12.02654312 -2.28216553 10.44760132 C-2.27153831 9.03434067 -2.27153831 9.03434067 -2.26069641 7.5925293 C-2.25864354 6.77326462 -2.25659067 5.95399994 -2.25447559 5.10990906 C-2 3 -2 3 0 0 Z " fill="#5C8E2B" transform="translate(331,460)"/>
<path d="M0 0 C8.33963296 6.55256876 14.19435872 14.67795574 16.625 25.0625 C16.96846068 28.57682689 16.95824239 32.0351037 16.875 35.5625 C16.86984375 36.46742188 16.8646875 37.37234375 16.859375 38.3046875 C16.78006269 44.90743731 16.78006269 44.90743731 15.625 46.0625 C13.69193502 46.15646057 11.75541162 46.17993517 9.82006836 46.17602539 C8.57885727 46.17594986 7.33764618 46.17587433 6.05882263 46.17579651 C4.6941626 46.17068911 3.32950298 46.1654731 1.96484375 46.16015625 C0.57621817 46.158292 -0.81240807 46.15686813 -2.20103455 46.15586853 C-5.86221115 46.15204387 -9.5233483 46.14221403 -13.18450928 46.13116455 C-16.91792263 46.12094932 -20.65134234 46.11637067 -24.38476562 46.11132812 C-31.71486177 46.10059171 -39.04492536 46.08351591 -46.375 46.0625 C-46.09918925 47.80489047 -45.81174613 49.54544174 -45.51953125 51.28515625 C-45.36073486 52.25461182 -45.20193848 53.22406738 -45.03833008 54.22290039 C-43.55224949 60.58455048 -39.85403217 65.54026504 -34.375 69.0625 C-28.84317427 71.88428989 -24.42634309 72.57500113 -18.25 72.5 C-17.41903809 72.49677734 -16.58807617 72.49355469 -15.73193359 72.49023438 C-9.33559568 72.34696826 -4.03846597 71.21695673 1.9609375 68.9375 C4.73647054 68.02588797 6.72734478 67.7366989 9.625 68.0625 C12.4193002 70.63023532 13.4867607 72.32522372 14.1875 76.0625 C13.41077377 80.2050399 11.91356118 81.45905573 8.625 84.0625 C-3.71662883 91.83315519 -20.54099249 92.9730841 -34.5625 89.9375 C-46.70095798 86.50178159 -56.26752029 79.96395726 -62.76171875 69.12109375 C-69.86739252 55.64956212 -70.9103939 38.4104483 -66.47265625 23.796875 C-61.04116589 10.26647198 -53.08583361 2.43357965 -40.07421875 -3.80859375 C-27.28077911 -9.15925085 -11.66097963 -6.69426608 0 0 Z " fill="#6B4B30" transform="translate(956.375,488.9375)"/>
<path d="M0 0 C0.9178125 -0.00773437 1.835625 -0.01546875 2.78125 -0.0234375 C6.27194747 0.48813023 7.82567525 1.01526933 10.5 3.375 C11.29097799 6.66226569 11.22101824 9.92497034 11.20703125 13.29296875 C11.22215256 14.26534988 11.23727386 15.23773102 11.25285339 16.23957825 C11.29586512 19.34745224 11.30458147 22.45435753 11.3125 25.5625 C11.33563379 27.66864579 11.36099678 29.77476836 11.38867188 31.88085938 C11.45165755 37.04565906 11.48388754 42.20984994 11.5 47.375 C12.1290625 46.90449219 12.758125 46.43398438 13.40625 45.94921875 C22.39754964 39.40886073 28.81844668 36.84931717 39.9375 36.9375 C40.82759766 36.91751953 41.71769531 36.89753906 42.63476562 36.87695312 C51.86184635 36.88369314 58.95793286 40.07140302 65.70703125 46.30859375 C71.49457701 52.97877176 73.61767345 60.40377335 73.64526367 69.03955078 C73.64862228 69.7001651 73.6519809 70.36077942 73.65544128 71.04141235 C73.66491508 73.21773168 73.66689217 75.39397386 73.66796875 77.5703125 C73.67118232 79.08438143 73.67454647 80.59845004 73.67805481 82.11251831 C73.68403605 85.28156251 73.68589559 88.45057946 73.68530273 91.61962891 C73.68520083 95.6863871 73.69888693 99.75297182 73.71607494 103.8196888 C73.72717135 106.94400847 73.72922272 110.06828577 73.72869301 113.19262314 C73.72987539 114.69258094 73.73431156 116.19253975 73.74202538 117.69247818 C73.75178378 119.78485718 73.74896468 121.87685359 73.74291992 123.96923828 C73.74434494 125.16074493 73.74576996 126.35225159 73.74723816 127.5798645 C73.5 130.375 73.5 130.375 71.5 132.375 C68.80837575 132.60052238 66.25330256 132.6993329 63.5625 132.6875 C62.83353516 132.70361328 62.10457031 132.71972656 61.35351562 132.73632812 C56.04060427 132.74119789 56.04060427 132.74119789 53.79138184 131.21760559 C51.96316804 128.60902238 52.12138488 126.70011711 52.11523438 123.5300293 C52.10512329 122.32835617 52.09501221 121.12668304 52.08459473 119.88859558 C52.08761597 118.58860123 52.09063721 117.28860687 52.09375 115.94921875 C52.08451538 114.60023236 52.07354428 113.25125684 52.06091309 111.90229797 C52.02413167 107.62237968 52.01043038 103.34255304 52 99.0625 C51.98790236 94.11164436 51.96622553 89.16121502 51.91999817 84.21055031 C51.906482 82.23316048 51.91078808 80.25567465 51.91540527 78.27824402 C51.90529419 77.06711441 51.89518311 75.8559848 51.88476562 74.6081543 C51.88271118 73.54686813 51.88065674 72.48558197 51.87854004 71.39213562 C51.20602618 66.03189545 48.75677938 61.6858284 44.5 58.375 C37.18256122 55.44802449 28.72409199 55.08717249 21.390625 58.1875 C16.85376493 61.03709806 13.18924583 65.30726252 11.5 70.375 C11.39847603 72.24008496 11.35427825 74.10851077 11.34228516 75.97631836 C11.32689194 77.69841774 11.32689194 77.69841774 11.31118774 79.45530701 C11.30388641 80.69595413 11.29658508 81.93660126 11.2890625 83.21484375 C11.26100111 85.83008446 11.2323367 88.44531876 11.203125 91.06054688 C11.16065196 95.19291836 11.123866 99.3252494 11.09863281 103.45776367 C11.07366782 107.43950624 11.02522913 111.4208187 10.9765625 115.40234375 C10.97330963 116.64096664 10.97005676 117.87958954 10.96670532 119.15574646 C10.95013885 120.30696487 10.93357239 121.45818329 10.91650391 122.64428711 C10.90841705 123.65671982 10.9003302 124.66915253 10.89199829 125.71226501 C10.43653363 128.80610932 9.72738566 130.19459325 7.5 132.375 C4.66119988 132.72649886 2.26077901 132.84485818 -0.5625 132.75 C-1.29533203 132.74871094 -2.02816406 132.74742187 -2.78320312 132.74609375 C-8.21875 132.65625 -8.21875 132.65625 -10.5 130.375 C-10.76006222 128.15387821 -10.76006222 128.15387821 -10.77415466 125.33326721 C-10.78412979 124.2662558 -10.79410492 123.19924438 -10.80438232 122.09989929 C-10.805047 120.92425919 -10.80571167 119.74861908 -10.80639648 118.53735352 C-10.81472 117.30317688 -10.82304352 116.06900024 -10.83161926 114.79742432 C-10.85162865 111.40688431 -10.86236744 108.01659022 -10.86744571 104.62601209 C-10.87108503 102.50897919 -10.87732281 100.39197007 -10.8844471 98.27494621 C-10.9089523 90.89284091 -10.921996 83.510806 -10.92553711 76.12866211 C-10.9291743 69.24160292 -10.95907947 62.35498887 -11.00094169 55.4680658 C-11.03559976 49.55973163 -11.05108476 43.6515453 -11.05178314 37.74311012 C-11.05257745 34.21220134 -11.06138524 30.68174584 -11.08978081 27.15094185 C-11.12073029 23.21446503 -11.11192329 19.2786316 -11.09936523 15.34204102 C-11.12161667 13.5816172 -11.12161667 13.5816172 -11.14431763 11.78562927 C-11.13455399 10.71579803 -11.12479034 9.6459668 -11.11473083 8.54371643 C-11.11674216 7.61253778 -11.11875349 6.68135912 -11.12082577 5.72196293 C-10.5 3.375 -10.5 3.375 -8.1315012 1.57685757 C-5.20313975 0.23941818 -3.20615105 -0.02701813 0 0 Z " fill="#6C4C31" transform="translate(1096.5,445.625)"/>
<path d="M0 0 C2.96044922 -0.3742218 2.96044922 -0.3742218 6.8046875 -0.37231445 C7.50402405 -0.37596512 8.2033606 -0.37961578 8.92388916 -0.38337708 C11.24117129 -0.39149921 13.55775774 -0.37785941 15.875 -0.36328125 C17.48160807 -0.36276284 19.08821678 -0.3632798 20.69482422 -0.36479187 C24.06422375 -0.36470207 27.43338439 -0.35425754 30.80273438 -0.33618164 C35.12741121 -0.31349408 39.45173878 -0.31294951 43.77645874 -0.31969929 C47.09467691 -0.32303658 50.41281506 -0.31641373 53.73101807 -0.30657005 C55.32586244 -0.30271362 56.92071571 -0.30157167 58.51556396 -0.3031559 C60.74232013 -0.30352568 62.96862409 -0.29093141 65.1953125 -0.2746582 C66.46391113 -0.27005081 67.73250977 -0.26544342 69.03955078 -0.26069641 C72 0 72 0 74 2 C74.265625 4.96875 74.265625 4.96875 74.25 8.5 C74.25773438 10.24796875 74.25773438 10.24796875 74.265625 12.03125 C74 15 74 15 72 17 C69.78536987 17.24050903 69.78536987 17.24050903 66.99951172 17.22705078 C65.95858368 17.22689972 64.91765564 17.22674866 63.84518433 17.22659302 C62.1545134 17.21110916 62.1545134 17.21110916 60.4296875 17.1953125 C59.27832306 17.1924826 58.12695862 17.18965271 56.94070435 17.18673706 C53.25203188 17.17551408 49.56359947 17.15040556 45.875 17.125 C43.37890975 17.11497294 40.8828157 17.10584662 38.38671875 17.09765625 C32.25764491 17.07726678 26.12909215 17.03812151 20 17 C20 29.21 20 41.42 20 54 C23.14144531 53.96519531 26.28289063 53.93039062 29.51953125 53.89453125 C32.55768932 53.8711438 35.59583741 53.85292257 38.6340332 53.83520508 C40.74768554 53.8201064 42.86130648 53.79962574 44.97485352 53.77368164 C48.01065815 53.73734603 51.04604906 53.72028456 54.08203125 53.70703125 C55.5024749 53.68380547 55.5024749 53.68380547 56.95161438 53.66011047 C58.27264412 53.65977058 58.27264412 53.65977058 59.62036133 53.65942383 C60.39535477 53.65276199 61.17034821 53.64610016 61.96882629 53.63923645 C64.54957778 54.09761235 65.42590658 54.93845728 67 57 C67.3984375 59.55859375 67.3984375 59.55859375 67.375 62.4375 C67.38660156 63.85869141 67.38660156 63.85869141 67.3984375 65.30859375 C66.90283326 68.65635181 66.5525574 69.73836454 64 72 C60.69767368 72.58037221 57.42546 72.46351655 54.08203125 72.390625 C53.10965012 72.38496521 52.13726898 72.37930542 51.13542175 72.37347412 C48.027282 72.35106929 44.92029176 72.30086481 41.8125 72.25 C39.70639685 72.22994033 37.60027564 72.21168864 35.49414062 72.1953125 C30.32898364 72.15119093 25.16468676 72.0821346 20 72 C20.00666183 72.61974197 20.01332367 73.23948395 20.02018738 73.87800598 C20.08646509 80.3177879 20.13176909 86.75747322 20.16479492 93.19750977 C20.17989816 95.60217218 20.20038208 98.00680698 20.22631836 100.41137695 C20.26263351 103.86416431 20.279711 107.31658804 20.29296875 110.76953125 C20.30845261 111.84773636 20.32393646 112.92594147 20.33988953 114.03681946 C20.34011612 115.03763046 20.34034271 116.03844147 20.34057617 117.06958008 C20.34723801 117.95116287 20.35389984 118.83274567 20.36076355 119.74104309 C20 122 20 122 18.72505188 123.7832489 C15.67832277 125.93223412 12.02803459 125.42863454 8.4375 125.375 C7.65697266 125.38660156 6.87644531 125.39820313 6.07226562 125.41015625 C3.80859375 125.3984375 3.80859375 125.3984375 0 125 C-2.1616453 121.75753204 -2.25072814 120.88274285 -2.25396729 117.14172363 C-2.25960693 116.14065079 -2.26524658 115.13957794 -2.27105713 114.10816956 C-2.26700867 113.01093063 -2.26296021 111.91369171 -2.25878906 110.78320312 C-2.2622937 109.62690903 -2.26579834 108.47061493 -2.26940918 107.27928162 C-2.27823163 103.44654384 -2.27237541 99.61398975 -2.265625 95.78125 C-2.2669715 93.12471282 -2.26890866 90.46818128 -2.27142334 87.81164551 C-2.27506274 82.23980712 -2.27026459 76.66802174 -2.26074219 71.09619141 C-2.24985765 64.65289897 -2.25338325 58.2097331 -2.264395 51.76644373 C-2.27346863 46.23601017 -2.27475279 40.70561474 -2.26951766 35.17517614 C-2.26639836 31.87136243 -2.2667718 28.56762133 -2.27259064 25.2638092 C-2.2776525 21.58138389 -2.26995016 17.89920385 -2.25878906 14.21679688 C-2.26486176 12.57093849 -2.26486176 12.57093849 -2.27105713 10.89183044 C-2.26541748 9.8907576 -2.25977783 8.88968475 -2.25396729 7.85827637 C-2.25321323 6.98739128 -2.25245918 6.1165062 -2.25168228 5.21923065 C-2 3 -2 3 0 0 Z " fill="#6A4B2F" transform="translate(730,453)"/>
<path d="M0 0 C0.91063112 16.52626839 -3.54656591 30.8536746 -14.4375 43.4375 C-20.94329912 50.21711222 -31.27013066 59.62377923 -41.12182617 60.10327148 C-43.88964011 60.29459231 -45.55934983 60.63948195 -48 62 C-51.17692102 66.53978872 -53.26786897 71.48330597 -55.4375 76.5625 C-56.34725605 78.61095256 -57.26619285 80.65494629 -58.19020081 82.69700623 C-59.0199018 84.54282888 -59.8258652 86.39926685 -60.63061523 88.25610352 C-62 91 -62 91 -64 92 C-63.84015625 91.37609375 -63.6803125 90.7521875 -63.515625 90.109375 C-62.80332209 85.81397258 -62.7757233 81.59723853 -62.75 77.25 C-62.729375 76.3940625 -62.70875 75.538125 -62.6875 74.65625 C-62.65247204 68.87663636 -62.90808922 63.04914996 -66 58 C-69.15415991 56.31010496 -69.15415991 56.31010496 -72.9375 55.875 C-84.68530549 53.48255955 -94.61996509 47.59970058 -102 38 C-108.01988586 28.04758333 -111.42587501 18.71156272 -111 7 C-98.23229962 6.20569606 -85.09039438 8.7654667 -74.8203125 16.6796875 C-65.34579786 25.29613289 -62.48323935 35.86005759 -60.65625 48.0390625 C-59.95832923 52.58200972 -58.63878287 56.70794962 -57 61 C-56.96132813 59.5459375 -56.96132813 59.5459375 -56.921875 58.0625 C-56.27442757 40.86508368 -53.24895828 25.08235475 -40.1875 12.8125 C-28.48882724 3.119314 -14.91145513 -0.26627598 0 0 Z " fill="#82A834" transform="translate(449,399)"/>
<path d="M0 0 C0.66169189 0.15686279 1.32338379 0.31372559 2.00512695 0.4753418 C6.48458851 1.6577291 9.98141205 3.30531021 13.5625 6.25 C15.41298299 10.61809289 14.86229619 14.50702682 13.125 18.8125 C12.609375 19.616875 12.09375 20.42125 11.5625 21.25 C7.00289383 20.83549035 3.23075148 19.7988928 -1.0625 18.1875 C-8.63254674 15.58499962 -17.01691892 14.54704189 -24.625 17.625 C-27.46286907 19.10302948 -27.46286907 19.10302948 -29.4375 21.25 C-30.02192963 24.12237733 -30.02192963 24.12237733 -29.4375 27.25 C-25.86891571 31.64990222 -22.33885155 33.32944726 -17 34.75 C-15.57363393 35.16596861 -14.14786206 35.58397954 -12.72265625 36.00390625 C-12.0073877 36.21031738 -11.29211914 36.41672852 -10.55517578 36.62939453 C1.29364403 40.10180633 11.27809675 43.36609465 17.65234375 54.515625 C20.94750854 60.79482315 20.69589209 70.05521733 18.84375 76.91015625 C15.10566157 84.73301066 8.01760034 90.26483567 -0.03515625 93.1953125 C-2.49192955 93.9406664 -4.94802756 94.62339809 -7.4375 95.25 C-8.05625 95.43433594 -8.675 95.61867188 -9.3125 95.80859375 C-21.45206293 98.3302309 -36.74925057 96.01942421 -47.375 89.625 C-50.4375 87.25 -50.4375 87.25 -51.4375 85.25 C-51.99314585 79.811082 -51.90217618 75.72520673 -48.4375 71.25 C-42.23361636 71.53199471 -37.72729613 73.94538287 -32.3046875 76.875 C-25.01189317 80.37236186 -16.12993667 80.28727335 -8.4375 78.0625 C-5.59781323 76.97031278 -4.47842731 76.29464797 -2.375 74 C-1.17278075 70.4734902 -0.97437021 67.95503829 -1.4375 64.25 C-4.19268377 59.95191332 -6.42648791 58.49734115 -11.3125 57.1875 C-12.45847656 56.86652344 -13.60445312 56.54554688 -14.78515625 56.21484375 C-15.99042969 55.89644531 -17.19570312 55.57804688 -18.4375 55.25 C-42.47320208 48.7504199 -42.47320208 48.7504199 -48.25 38.875 C-51.51577433 31.88872327 -51.69402809 24.3091789 -49.84375 16.859375 C-47.00242615 10.17700223 -41.04157024 4.96082404 -34.58203125 1.89453125 C-23.00205617 -2.43428535 -12.00549973 -2.92304187 0 0 Z " fill="#6C4C31" transform="translate(1044.4375,483.75)"/>
<path d="M0 0 C1.85625 -0.01160156 1.85625 -0.01160156 3.75 -0.0234375 C7 0.375 7 0.375 8.68481445 1.59448242 C10.41940388 3.94279515 10.34568905 5.36210252 10.29296875 8.26171875 C10.2784668 9.6684082 10.2784668 9.6684082 10.26367188 11.10351562 C10.23853516 12.07998047 10.21339844 13.05644531 10.1875 14.0625 C10.16719727 15.54459961 10.16719727 15.54459961 10.14648438 17.05664062 C10.11112203 19.49664231 10.06177033 21.93554719 10 24.375 C10.84763916 24.35928955 10.84763916 24.35928955 11.71240234 24.34326172 C14.26655653 24.30175212 16.82063982 24.2756904 19.375 24.25 C20.26445313 24.23324219 21.15390625 24.21648437 22.0703125 24.19921875 C22.92109375 24.19277344 23.771875 24.18632812 24.6484375 24.1796875 C25.82672119 24.16397705 25.82672119 24.16397705 27.02880859 24.14794922 C29 24.375 29 24.375 31 26.375 C31.3359375 28.8359375 31.3359375 28.8359375 31.375 31.75 C31.40335938 32.70648438 31.43171875 33.66296875 31.4609375 34.6484375 C30.84862016 38.27045027 29.96235585 39.20421412 27 41.375 C24.06718718 41.8624129 21.21256714 41.75273921 18.25 41.625 C17.45722656 41.60695313 16.66445313 41.58890625 15.84765625 41.5703125 C13.89791652 41.52333082 11.94880122 41.45159044 10 41.375 C10.01625936 48.99265318 10.07098849 56.60933075 10.15258789 64.2265625 C10.17579792 66.81829503 10.19017059 69.41012227 10.19555664 72.00195312 C10.20482364 75.72586303 10.24576914 79.44827676 10.29296875 83.171875 C10.2890361 84.33241394 10.28510345 85.49295288 10.28105164 86.68865967 C10.25467954 92.92303212 10.25467954 92.92303212 13.29492188 98.11328125 C15.81494445 99.28868528 17.25084564 99.8546473 19.98828125 99.765625 C20.69404297 99.75273438 21.39980469 99.73984375 22.12695312 99.7265625 C22.84818359 99.69304687 23.56941406 99.65953125 24.3125 99.625 C25.05306641 99.60695313 25.79363281 99.58890625 26.55664062 99.5703125 C28.3716571 99.52347337 30.18600166 99.45173789 32 99.375 C33.81205858 102.44640431 34.22518386 104.40277299 33.8125 107.9375 C33.73644531 108.70191406 33.66039062 109.46632813 33.58203125 110.25390625 C32.87064336 112.84641379 32.1283209 113.7469053 30 115.375 C22.74305037 119.30089079 11.51980513 118.64995714 3.7734375 116.46484375 C-2.37795982 113.57498791 -6.60629331 109.95650208 -9.11279297 103.51538086 C-10.63830913 97.80883077 -10.24437499 91.86213474 -10.1953125 86.00390625 C-10.1924826 84.72644028 -10.18965271 83.4489743 -10.18673706 82.13279724 C-10.17747007 78.75766422 -10.15954066 75.38280796 -10.1373291 72.00775146 C-10.11676863 68.55532201 -10.10771366 65.10286382 -10.09765625 61.65039062 C-10.07564914 54.89185137 -10.04221125 48.13344164 -10 41.375 C-10.90363281 41.43300781 -11.80726563 41.49101562 -12.73828125 41.55078125 C-14.50751953 41.61845703 -14.50751953 41.61845703 -16.3125 41.6875 C-17.48425781 41.74550781 -18.65601563 41.80351562 -19.86328125 41.86328125 C-23 41.375 -23 41.375 -24.89306641 38.98657227 C-26.56021425 35.0532947 -26.40634395 32.64161145 -26 28.375 C-24.89453125 26.14453125 -24.89453125 26.14453125 -23 24.375 C-19.86328125 23.984375 -19.86328125 23.984375 -16.3125 24.125 C-15.13300781 24.16109375 -13.95351563 24.1971875 -12.73828125 24.234375 C-11.38283203 24.30398438 -11.38283203 24.30398438 -10 24.375 C-10.02356567 23.44433716 -10.02356567 23.44433716 -10.04760742 22.49487305 C-10.10996214 19.68417472 -10.14899148 16.87362188 -10.1875 14.0625 C-10.22520508 12.59780273 -10.22520508 12.59780273 -10.26367188 11.10351562 C-10.27333984 10.16572266 -10.28300781 9.22792969 -10.29296875 8.26171875 C-10.3086792 7.39764404 -10.32438965 6.53356934 -10.34057617 5.64331055 C-10 3.375 -10 3.375 -8.68481445 1.59448242 C-5.94387414 -0.3894325 -3.31487928 -0.020718 0 0 Z " fill="#5C8D2B" transform="translate(571,461.625)"/>
<path d="M0 0 C0.73734375 0.00773437 1.4746875 0.01546875 2.234375 0.0234375 C3.34039063 0.01183594 3.34039063 0.01183594 4.46875 0 C9.9810554 0.0201179 9.9810554 0.0201179 12.234375 2.2734375 C12.46142578 4.42822266 12.46142578 4.42822266 12.4296875 7.0625 C12.42324219 8.00351562 12.41679688 8.94453125 12.41015625 9.9140625 C12.39339844 10.89890625 12.37664063 11.88375 12.359375 12.8984375 C12.35035156 13.89101563 12.34132813 14.88359375 12.33203125 15.90625 C12.30841616 18.36221884 12.27548299 20.81770918 12.234375 23.2734375 C13.08201416 23.25772705 13.08201416 23.25772705 13.94677734 23.24169922 C16.50093153 23.20018962 19.05501482 23.1741279 21.609375 23.1484375 C22.49882813 23.13167969 23.38828125 23.11492187 24.3046875 23.09765625 C25.15546875 23.09121094 26.00625 23.08476562 26.8828125 23.078125 C28.06109619 23.06241455 28.06109619 23.06241455 29.26318359 23.04638672 C31.234375 23.2734375 31.234375 23.2734375 33.234375 25.2734375 C33.5703125 27.734375 33.5703125 27.734375 33.609375 30.6484375 C33.63773438 31.60492188 33.66609375 32.56140625 33.6953125 33.546875 C33.08299516 37.16888777 32.19673085 38.10265162 29.234375 40.2734375 C26.30156218 40.7608504 23.44694214 40.65117671 20.484375 40.5234375 C19.69160156 40.50539063 18.89882813 40.48734375 18.08203125 40.46875 C16.13229152 40.42176832 14.18317622 40.35002794 12.234375 40.2734375 C12.275974 47.74861662 12.34823136 55.22304697 12.44189453 62.69775391 C12.47013456 65.24097941 12.4913339 67.78429317 12.50537109 70.32763672 C12.52675777 73.98190603 12.57338891 77.63511064 12.625 81.2890625 C12.62622864 82.42772766 12.62745728 83.56639282 12.62872314 84.73956299 C12.64844177 85.80036072 12.6681604 86.86115845 12.68847656 87.95410156 C12.69735901 88.88675842 12.70624146 89.81941528 12.71539307 90.78033447 C13.38768631 94.00991957 14.72771341 95.19937022 17.234375 97.2734375 C20.71318338 99.01284169 24.98451866 98.22366497 28.82421875 98.05859375 C30.828125 98.015625 30.828125 98.015625 34.234375 98.2734375 C36.93157578 102.31923868 36.76732553 105.52845857 36.234375 110.2734375 C35.171875 112.7109375 35.171875 112.7109375 33.234375 114.2734375 C24.71088302 117.19973 13.66959332 118.1029968 5.109375 114.7109375 C-1.13487548 111.31473256 -4.69572283 106.4178323 -7.12310791 99.79669189 C-8.4388804 94.62946946 -8.12663931 89.32121048 -8.05859375 84.0234375 C-8.05434891 82.76958252 -8.05010406 81.51572754 -8.04573059 80.22387695 C-8.03184669 76.91607963 -8.00496853 73.60873368 -7.97161865 70.30108643 C-7.94074074 66.91562377 -7.9271877 63.53009462 -7.91210938 60.14453125 C-7.87912763 53.52065894 -7.82899337 46.89708508 -7.765625 40.2734375 C-8.59707031 40.30824219 -9.42851563 40.34304688 -10.28515625 40.37890625 C-11.91517578 40.41951172 -11.91517578 40.41951172 -13.578125 40.4609375 C-14.65707031 40.49574219 -15.73601563 40.53054688 -16.84765625 40.56640625 C-19.765625 40.2734375 -19.765625 40.2734375 -21.62963867 38.93969727 C-23.36030542 36.40116287 -23.12597369 34.24012755 -23.078125 31.2109375 C-23.07425781 30.14746094 -23.07039062 29.08398438 -23.06640625 27.98828125 C-22.765625 25.2734375 -22.765625 25.2734375 -20.765625 23.2734375 C-17.7265625 23.078125 -17.7265625 23.078125 -14.140625 23.1484375 C-12.35785156 23.17550781 -12.35785156 23.17550781 -10.5390625 23.203125 C-9.62382813 23.22632813 -8.70859375 23.24953125 -7.765625 23.2734375 C-7.77609863 22.64775879 -7.78657227 22.02208008 -7.79736328 21.37744141 C-7.83885691 18.5511474 -7.86492973 15.72491739 -7.890625 12.8984375 C-7.91576172 11.42117188 -7.91576172 11.42117188 -7.94140625 9.9140625 C-7.94785156 8.97304688 -7.95429687 8.03203125 -7.9609375 7.0625 C-7.97141113 6.19318848 -7.98188477 5.32387695 -7.99267578 4.42822266 C-7.47834372 -0.45295448 -4.11901187 0.01503289 0 0 Z " fill="#5C8E2C" transform="translate(631.765625,462.7265625)"/>
<path d="M0 0 C0.31461385 7.09629025 0.44572039 12.68284595 -3 19 C-4.11375 18.835 -5.2275 18.67 -6.375 18.5 C-14.74652733 17.50902415 -21.8536651 16.87952343 -29 22 C-35.04614922 27.77743148 -37.07019538 34.54831924 -37.41650391 42.74755859 C-37.45079428 44.88100326 -37.4701453 47.01472693 -37.4765625 49.1484375 C-37.49993179 50.84995468 -37.49993179 50.84995468 -37.52377319 52.58584595 C-37.57101285 56.18222437 -37.59897617 59.77841097 -37.625 63.375 C-37.66151996 66.99287817 -37.70210839 70.61064827 -37.74765015 74.22842407 C-37.77483091 76.47313075 -37.79620201 78.71791683 -37.81118774 80.96273804 C-37.82658096 82.48044296 -37.82658096 82.48044296 -37.84228516 84.02880859 C-37.84878082 84.91877533 -37.85527649 85.80874207 -37.86196899 86.72567749 C-38 89 -38 89 -39 92 C-42.00287088 93.50143544 -45.083109 93.26574018 -48.375 93.3125 C-49.38433594 93.35600586 -49.38433594 93.35600586 -50.4140625 93.40039062 C-53.55558905 93.44058732 -55.57969434 93.29062566 -58.1917572 91.48448181 C-60.69974374 88.03856905 -60.56811353 84.92653017 -60.53344727 80.82250977 C-60.54206284 80.00090363 -60.55067841 79.17929749 -60.55955505 78.33279419 C-60.58224535 75.61867711 -60.57547048 72.90559007 -60.56640625 70.19140625 C-60.57164075 68.3033772 -60.57791659 66.41535078 -60.58518982 64.52732849 C-60.59559987 60.57042129 -60.5910243 56.61387358 -60.57641602 52.65698242 C-60.55923335 47.58799462 -60.58271371 42.52014087 -60.61790562 37.45127964 C-60.63987519 33.55214435 -60.63843912 29.65328055 -60.6301403 25.75410271 C-60.62932042 23.88540338 -60.63619087 22.0166842 -60.65091133 20.14804268 C-60.66834808 17.53361638 -60.65382318 14.92122931 -60.63110352 12.30688477 C-60.64279572 11.53633255 -60.65448792 10.76578033 -60.66653442 9.97187805 C-60.59631998 5.99728792 -60.14264629 4.18209331 -57.66221619 1.01573181 C-54.33226046 -1.50558773 -52.50874273 -1.58479428 -48.375 -1.4375 C-46.68503906 -1.40462891 -46.68503906 -1.40462891 -44.9609375 -1.37109375 C-42 -1 -42 -1 -39 1 C-38.48828125 4.2578125 -38.48828125 4.2578125 -38.3125 8.125 C-38.24675781 9.40632813 -38.18101562 10.68765625 -38.11328125 12.0078125 C-38.07589844 12.99523437 -38.03851562 13.98265625 -38 15 C-37.72027344 14.49210937 -37.44054687 13.98421875 -37.15234375 13.4609375 C-33.36812888 6.96328239 -28.51597947 1.25818199 -21.29296875 -1.53515625 C-14.79129453 -2.85321286 -5.74513196 -3.65070411 0 0 Z " fill="#6C4C31" transform="translate(878,485)"/>
<path d="M0 0 C1.14984375 -0.00386719 2.2996875 -0.00773437 3.484375 -0.01171875 C4.68578125 -0.00011719 5.8871875 0.01148438 7.125 0.0234375 C8.32640625 0.01183594 9.5278125 0.00023437 10.765625 -0.01171875 C12.49039063 -0.00591797 12.49039063 -0.00591797 14.25 0 C15.83167969 0.00507568 15.83167969 0.00507568 17.4453125 0.01025391 C20.125 0.3984375 20.125 0.3984375 21.76821899 1.41098022 C23.91452285 4.55495645 23.54149335 7.90933173 23.51318359 11.5859375 C23.51844055 12.42036377 23.52369751 13.25479004 23.52911377 14.11450195 C23.54233049 16.87600355 23.53356986 19.63692992 23.5234375 22.3984375 C23.52545776 24.31510529 23.52836879 26.23177234 23.53213501 28.1484375 C23.53656063 32.16674106 23.53011965 36.18484466 23.51611328 40.203125 C23.49902128 45.35839758 23.50886119 50.51320164 23.52683067 55.66845703 C23.53766208 59.62666363 23.53422512 63.58475883 23.5264473 67.54296875 C23.52444351 69.44401098 23.5269108 71.34506326 23.53388596 73.24609375 C23.54148987 75.9013149 23.52991136 78.55577328 23.51318359 81.2109375 C23.52229263 82.39393433 23.52229263 82.39393433 23.53158569 83.60083008 C23.4698534 88.87982311 23.4698534 88.87982311 21.80386353 91.38525391 C19.00897946 93.07194889 16.33622611 92.79350766 13.125 92.7734375 C11.8875 92.78117188 10.65 92.78890625 9.375 92.796875 C6.125 92.3984375 6.125 92.3984375 4.44316101 91.3079071 C2.43540819 88.39950445 2.76608343 85.95150146 2.78442383 82.44848633 C2.78398575 81.74579117 2.78354767 81.04309601 2.78309631 80.31910706 C2.78518553 77.99761114 2.80852181 75.67683841 2.83203125 73.35546875 C2.83762676 71.74550267 2.84189707 70.13553148 2.84489441 68.52555847 C2.85634682 64.28888843 2.88581721 60.0525271 2.91900635 55.815979 C2.94969881 51.4925962 2.96339797 47.16916349 2.97851562 42.84570312 C3.0106867 34.3631396 3.06188762 25.88082696 3.125 17.3984375 C2.42632812 17.43324219 1.72765625 17.46804688 1.0078125 17.50390625 C0.09773438 17.53097656 -0.81234375 17.55804688 -1.75 17.5859375 C-2.65492188 17.62074219 -3.55984375 17.65554688 -4.4921875 17.69140625 C-5.67167969 17.54638672 -5.67167969 17.54638672 -6.875 17.3984375 C-9.09764871 14.06446444 -9.17175463 12.80328859 -9.1875 8.8984375 C-9.20425781 7.939375 -9.22101563 6.9803125 -9.23828125 5.9921875 C-8.875 3.3984375 -8.875 3.3984375 -7.71948242 1.76123047 C-5.11545629 -0.16275019 -3.21534836 0.0103182 0 0 Z " fill="#5B8D2B" transform="translate(505.875,485.6015625)"/>
<path d="M0 0 C1.01513672 -0.01740234 1.01513672 -0.01740234 2.05078125 -0.03515625 C4.70117497 -0.01947345 6.88435302 0.00379692 9.19154358 1.39491272 C11.25820624 4.52239361 10.92504321 7.82834268 10.90405273 11.45483398 C10.91091599 12.27790039 10.91777924 13.1009668 10.92485046 13.94897461 C10.9431709 16.67318918 10.93927349 19.39683071 10.93359375 22.12109375 C10.93815317 24.01294645 10.94345802 25.9047975 10.94947815 27.79664612 C10.95841965 31.76366907 10.95597448 35.73049082 10.94604492 39.69750977 C10.93455613 44.78328158 10.95476002 49.86835901 10.98396206 54.95403957 C11.00230186 58.86168333 11.002036 62.76916003 10.99632454 66.67683601 C10.99617104 68.55194129 11.00223893 70.42705769 11.01461601 72.30212212 C11.02948182 74.92378248 11.01888193 77.54415174 11.00170898 80.16577148 C11.01137695 80.94149002 11.02104492 81.71720856 11.03100586 82.51643372 C10.98310311 86.00590253 10.76918262 88.00832419 8.6778717 90.85707092 C5.56356257 93.02767646 3.194519 92.87175897 -0.5625 92.8125 C-1.79097656 92.81121094 -3.01945312 92.80992187 -4.28515625 92.80859375 C-7.5 92.375 -7.5 92.375 -9.17666626 91.35961914 C-11.27820071 88.20792327 -10.91638533 84.85007728 -10.88818359 81.1875 C-10.89344055 80.35307373 -10.89869751 79.51864746 -10.90411377 78.65893555 C-10.91733049 75.89743395 -10.90856986 73.13650758 -10.8984375 70.375 C-10.90045776 68.45833221 -10.90336879 66.54166516 -10.90713501 64.625 C-10.91156063 60.60669644 -10.90511965 56.58859284 -10.89111328 52.5703125 C-10.87402128 47.41503992 -10.88386119 42.26023586 -10.90183067 37.10498047 C-10.91266208 33.14677387 -10.90922512 29.18867867 -10.9014473 25.23046875 C-10.89944351 23.32942652 -10.9019108 21.42837424 -10.90888596 19.52734375 C-10.91648987 16.8721226 -10.90491136 14.21766422 -10.88818359 11.5625 C-10.89425629 10.77383545 -10.90032898 9.9851709 -10.90658569 9.17260742 C-10.84491796 3.89913554 -10.84491796 3.89913554 -9.1925354 1.38818359 C-6.32728659 -0.32700835 -3.23677311 -0.05548754 0 0 Z " fill="#5F902F" transform="translate(469.5,485.625)"/>
<path d="M0 0 C1.02770508 0.00483398 1.02770508 0.00483398 2.07617188 0.00976562 C3.09807617 -0.0144043 3.09807617 -0.0144043 4.140625 -0.0390625 C9.02495245 -0.04384637 9.02495245 -0.04384637 11.33340454 1.33325195 C13.40764941 4.49406146 13.05502208 7.85174906 13.02685547 11.50976562 C13.03211243 12.34419189 13.03736938 13.17861816 13.04278564 14.03833008 C13.05600236 16.79983167 13.04724174 19.56075804 13.03710938 22.32226562 C13.03912963 24.23893342 13.04204066 26.15560047 13.04580688 28.07226562 C13.0502325 32.09056919 13.04379153 36.10867279 13.02978516 40.12695312 C13.01269316 45.28222571 13.02253307 50.43702977 13.04050255 55.59228516 C13.05133396 59.55049176 13.047897 63.50858695 13.04011917 67.46679688 C13.03811538 69.3678391 13.04058268 71.26889139 13.04755783 73.16992188 C13.05516174 75.82514303 13.04358323 78.47960141 13.02685547 81.13476562 C13.03596451 82.31776245 13.03596451 82.31776245 13.04525757 83.5246582 C12.98352527 88.80365123 12.98352527 88.80365123 11.3175354 91.30908203 C8.52265133 92.99577701 5.84989798 92.71733579 2.63867188 92.69726562 C1.40117188 92.705 0.16367187 92.71273437 -1.11132812 92.72070312 C-4.36132812 92.32226562 -4.36132812 92.32226562 -6.04118347 91.31581116 C-8.15024811 88.1309205 -7.76895521 84.72103836 -7.73364258 81.02709961 C-7.73729324 80.18131348 -7.74094391 79.33552734 -7.7447052 78.46411133 C-7.75281868 75.66532381 -7.73919517 72.86711376 -7.72460938 70.06835938 C-7.72409091 68.12687683 -7.72460808 66.18539376 -7.72612 64.24391174 C-7.72603024 60.17432828 -7.71559298 56.10494279 -7.69750977 52.03540039 C-7.67480743 46.81060456 -7.67428086 41.58609773 -7.68102741 36.36126614 C-7.68436338 32.35249752 -7.6777446 28.3437952 -7.66789818 24.33503914 C-7.66404058 22.4080547 -7.66290027 20.48106289 -7.66448402 18.55407524 C-7.66485351 15.86525201 -7.65226779 13.17680414 -7.63598633 10.48803711 C-7.63846375 9.68642654 -7.64094116 8.88481598 -7.64349365 8.05891418 C-7.5805966 1.57421418 -6.61705527 0.07143043 0 0 Z " fill="#5B8D2B" transform="translate(689.361328125,485.677734375)"/>
<path d="M0 0 C12.76770038 -0.79430394 25.90960562 1.7654667 36.1796875 9.6796875 C43.75858478 16.57219408 49.09717196 26.7119595 50 37 C49.625 40.0625 49.625 40.0625 49 42 C46.14588905 39.25904763 43.74369943 36.41498562 41.375 33.25 C35.71781592 26.10463876 29.22973656 20.9001795 21 17 C21.61746094 17.64324219 22.23492187 18.28648437 22.87109375 18.94921875 C44 41.49315068 44 41.49315068 44 50 C33.36672914 49.38654207 23.96892895 44.96415095 16 38 C15.11054688 37.28457031 15.11054688 37.28457031 14.203125 36.5546875 C6.49246993 29.76521688 0.99523446 18.20603185 0 8 C-0.12216175 5.30791695 -0.09808285 2.6972785 0 0 Z " fill="#81A733" transform="translate(338,406)"/>
<path d="M0 0 C6.42578817 5.83311838 7.12858958 11.28589584 8 20 C-6.52 20 -21.04 20 -36 20 C-34.91526756 12.40687293 -33.41890647 6.56943165 -28 1 C-18.87013875 -5.3354411 -9.49196457 -5.9053062 0 0 Z " fill="#FCFCFB" transform="translate(946,502)"/>
<path d="M0 0 C10.43153051 3.7523491 18.08979324 11.61196684 25 20 C25.70253906 20.84175781 26.40507812 21.68351562 27.12890625 22.55078125 C29.83177384 26.08877285 31.26149552 29.53553161 32.625 33.75 C33.01558594 34.94882812 33.01558594 34.94882812 33.4140625 36.171875 C33.60742188 36.77515625 33.80078125 37.3784375 34 38 C34.4125 37.11699219 34.825 36.23398437 35.25 35.32421875 C40.89881393 23.47928948 48.23495397 8.62402066 61.2734375 3.78515625 C62.17320312 3.52605469 63.07296875 3.26695312 64 3 C63.59910156 3.62003906 63.19820313 4.24007813 62.78515625 4.87890625 C52.68240208 20.53707718 52.68240208 20.53707718 44 37 C46.97 36.505 46.97 36.505 50 36 C48 38 48 38 45.5925293 38.22460938 C42.7204276 38.78147298 42.7204276 38.78147298 41.17895508 41.75976562 C40.60727214 42.96665066 40.05522496 44.18296544 39.51953125 45.40625 C39.22060471 46.04614868 38.92167816 46.68604736 38.61369324 47.34533691 C37.66227422 49.38926091 36.7364459 51.44352951 35.8125 53.5 C34.87371569 55.55423578 33.92976755 57.60586646 32.97917175 59.65466309 C32.38922065 60.92978828 31.8068759 62.20846517 31.23286438 63.49084473 C29.22144248 67.88927876 29.22144248 67.88927876 27 69 C27.23783203 68.06220703 27.23783203 68.06220703 27.48046875 67.10546875 C29.30001936 56.22920757 29.63904021 43.70982664 24 34 C23.50242187 33.06414062 23.00484375 32.12828125 22.4921875 31.1640625 C16.71838632 20.71751059 9.52194771 11.39508962 1.43359375 2.64453125 C0 1 0 1 0 0 Z " fill="#47781B" transform="translate(358,422)"/>
<path d="M0 0 C3.0625 2.4375 3.0625 2.4375 5 5 C5.33 5.33 5.66 5.66 6 6 C6.55108256 10.79712852 6.85118474 15.40734854 4.125 19.5625 C1.8909267 22.12511349 1.10945701 22.88021792 -2.20703125 23.23828125 C-9.24770268 23.43884011 -9.24770268 23.43884011 -13 21.25 C-16.0103761 17.86332689 -16.89710076 16.13189161 -17.3125 11.5625 C-16.90777706 6.9486585 -15.63920196 4.46497008 -12.19921875 1.390625 C-8.37994176 -1.02440628 -4.3561287 -0.78241146 0 0 Z " fill="#5C8D2C" transform="translate(696,451)"/>
<path d="M0 0 C3.07061968 1.71368609 5.40450726 3.80901452 7 7 C7.43808718 11.28819956 7.44926618 14.94422448 5.75 18.9375 C3.44900276 21.6493896 1.35973909 22.76513598 -2.1484375 23.37109375 C-6.38139331 23.4973398 -9.14342222 23.37350209 -12.5 20.625 C-16.20164085 16.7382771 -16.28537438 14.43785798 -16.21875 9.2578125 C-15.91889867 6.16291845 -15.00312491 4.36082578 -13 2 C-8.79468257 -0.52319046 -4.79090783 -0.83716556 0 0 Z " fill="#5B8D2C" transform="translate(523,451)"/>
<path d="M0 0 C3.3125 1.9375 3.3125 1.9375 5 5 C5.96069528 9.83905768 5.45803117 13.11552601 3.1875 17.5 C0.73608136 20.3016213 -0.65379027 20.8608156 -4.3046875 21.23828125 C-11.28174738 21.4397465 -11.28174738 21.4397465 -15.0625 19.125 C-17.9895034 15.9147382 -18.22597315 13.90092418 -18.375 9.625 C-18.44847656 8.19027344 -18.44847656 8.19027344 -18.5234375 6.7265625 C-18 4 -18 4 -15.8828125 1.68359375 C-10.83216854 -1.26603707 -5.66352532 -0.81218289 0 0 Z " fill="#5B8E2C" transform="translate(476,454)"/>
<path d="M0 0 C0.763125 0.0825 1.52625 0.165 2.3125 0.25 C0.3325 1.24 0.3325 1.24 -1.6875 2.25 C-2.0175 31.29 -2.3475 60.33 -2.6875 90.25 C1.6025 90.91 5.8925 91.57 10.3125 92.25 C10.3125 92.58 10.3125 92.91 10.3125 93.25 C8.39708862 93.35841951 6.47990227 93.43578079 4.5625 93.5 C3.49515625 93.54640625 2.4278125 93.5928125 1.328125 93.640625 C-1.6875 93.25 -1.6875 93.25 -3.84461975 91.7376709 C-6.40026151 88.28785607 -6.24076858 85.18519438 -6.18920898 81.05664062 C-6.19461197 80.23342819 -6.20001495 79.41021576 -6.20558167 78.5620575 C-6.21808078 75.84308836 -6.20157047 73.12517567 -6.18359375 70.40625 C-6.18374871 68.51582789 -6.18523721 66.62540545 -6.18800354 64.73498535 C-6.18938806 60.77386422 -6.17682058 56.81310494 -6.15405273 52.85205078 C-6.12566798 47.774231 -6.12840473 42.69701252 -6.14114285 37.61914825 C-6.14809733 33.7157884 -6.14031337 29.81256757 -6.12788582 25.90922546 C-6.12336907 24.03692661 -6.12303646 22.16461284 -6.12695122 20.29231262 C-6.12986117 17.67568361 -6.11336711 15.05988364 -6.09155273 12.44335938 C-6.09605438 11.66921188 -6.10055603 10.89506439 -6.10519409 10.09745789 C-6.0607443 6.88905066 -5.87656892 4.59775537 -4.33021545 1.75354004 C-2.6875 0.25 -2.6875 0.25 0 0 Z " fill="#72543A" transform="translate(823.6875,484.75)"/>
<path d="M0 0 C0.96808594 -0.01417969 1.93617187 -0.02835937 2.93359375 -0.04296875 C5.5625 0.1875 5.5625 0.1875 8.5625 2.1875 C5.47951949 3.21516017 3.23119574 3.35348738 0 3.375 C-1.45599609 3.39626953 -1.45599609 3.39626953 -2.94140625 3.41796875 C-5.4375 3.1875 -5.4375 3.1875 -7.4375 1.1875 C-4.84996844 -0.10626578 -2.88791015 0.01917603 0 0 Z " fill="#725439" transform="translate(1096.4375,445.8125)"/>
<path d="M0 0 C0.66 0.33 1.32 0.66 2 1 C0.41856529 2.43958847 -1.16522779 3.87658645 -2.75 5.3125 C-3.63171875 6.11300781 -4.5134375 6.91351563 -5.421875 7.73828125 C-7.55449328 9.60916911 -9.70187943 11.34084286 -12 13 C-12 10 -12 10 -10.64453125 8.28125 C-4.01490066 1.83538316 -4.01490066 1.83538316 0 0 Z " fill="#759E20" transform="translate(416,407)"/>
<path d="M0 0 C0.66 0 1.32 0 2 0 C3.625 2 3.625 2 5 4 C5.66 3.34 6.32 2.68 7 2 C8.23921302 4.97411124 9.30058404 7.85262818 10 11 C9.01 11 8.02 11 7 11 C5.17578125 8.84765625 5.17578125 8.84765625 3.3125 6.0625 C2.68988281 5.14597656 2.06726563 4.22945313 1.42578125 3.28515625 C0 1 0 1 0 0 Z " fill="#8BAE3E" transform="translate(378,436)"/>
<path d="M0 0 C0.33 0 0.66 0 1 0 C1.22307542 2.2277397 1.42788178 4.45731364 1.625 6.6875 C1.74101562 7.92886719 1.85703125 9.17023438 1.9765625 10.44921875 C1.99953004 13.92880169 1.54051631 15.92484721 0 19 C-0.33 19 -0.66 19 -1 19 C-1.02705308 16.58325776 -1.04686438 14.1668206 -1.0625 11.75 C-1.07087891 11.06808594 -1.07925781 10.38617188 -1.08789062 9.68359375 C-1.10428392 6.30657446 -1.05628768 3.22708361 0 0 Z " fill="#79A126" transform="translate(394,440)"/>
<path d="M0 0 C0 0.99 0 1.98 0 3 C-0.99 3.33 -1.98 3.66 -3 4 C-3.28875 4.5775 -3.5775 5.155 -3.875 5.75 C-5.38015001 8.76030003 -7.57377963 10.70147544 -10 13 C-9.84825965 7.99256861 -7.09792829 5.72452403 -3.69140625 2.453125 C-2 1 -2 1 0 0 Z " fill="#5C391C" transform="translate(1006,488)"/>
<path d="M0 0 C2.375 -0.125 2.375 -0.125 5 0 C7 2 7 2 7.265625 4.53125 C7.26046875 5.5109375 7.2553125 6.490625 7.25 7.5 C7.25515625 8.4796875 7.2603125 9.459375 7.265625 10.46875 C7 13 7 13 5 15 C5.01160156 14.30132813 5.02320313 13.60265625 5.03515625 12.8828125 C5.04417969 11.97273437 5.05320312 11.06265625 5.0625 10.125 C5.07410156 9.22007812 5.08570313 8.31515625 5.09765625 7.3828125 C5.16249257 4.9831415 5.16249257 4.9831415 4 3 C1.98330173 1.86649466 1.98330173 1.86649466 0 1 C0 0.67 0 0.34 0 0 Z " fill="#573317" transform="translate(790,508)"/>
<path d="M0 0 C4.62 0 9.24 0 14 0 C14 0.33 14 0.66 14 1 C9.49646738 2.75747614 5.82360189 3.19294408 1 3 C0.67 2.01 0.34 1.02 0 0 Z " fill="#679537" transform="translate(564,462)"/>
</svg>
